<?xml version="1.0" standalone="no"?>
<!DOCTYPE svg PUBLIC "-//W3C//DTD SVG 20010904//EN"
 "http://www.w3.org/TR/2001/REC-SVG-20010904/DTD/svg10.dtd">
<svg version="1.0" xmlns="http://www.w3.org/2000/svg"
 width="500.000000pt" height="500.000000pt" viewBox="0 0 500.000000 500.000000"
 preserveAspectRatio="xMidYMid meet">

<g transform="translate(0.000000,500.000000) scale(0.100000,-0.100000)"
fill="#000000" stroke="none">
<path d="M0 2500 l0 -2500 2500 0 2500 0 0 2500 0 2500 -2500 0 -2500 0 0
-2500z m3555 -115 l0 -995 -382 0 -383 0 0 110 0 110 270 0 270 0 0 775 0 775
-775 0 -775 0 0 -265 0 -265 -110 0 -110 0 0 375 0 375 998 0 997 0 0 -995z
m-1345 -270 l0 -515 -110 0 -110 0 0 515 0 515 110 0 110 0 0 -515z m-430
-205 l0 -520 -110 0 -110 0 0 520 0 520 110 0 110 0 0 -520z m850 0 l0 -520
-110 0 -110 0 0 520 0 520 110 0 110 0 0 -520z"/>
</g>
</svg>
